<?xml version="1.0" encoding="utf-8"?>
<!-- Generator: Adobe Illustrator 21.0.0, SVG Export Plug-In . SVG Version: 6.00 Build 0)  -->
<svg version="1.1" id="Слой_1" xmlns="http://www.w3.org/2000/svg" xmlns:xlink="http://www.w3.org/1999/xlink" x="0px" y="0px"
	 viewBox="0 0 705.1 213" style="enable-background:new 0 0 705.1 213;" xml:space="preserve">
<style type="text/css">
	.st0{fill:#430098;}
</style>
<g>
	<path class="st0" d="M74.9,175.1c0,12.3-9.7,22.3-22,22.8H41.6c-12.8,0-23-10.2-23-22.8V37.9c0-12.5,10.2-22.8,23-22.8h11.3
		c12.3,0.3,22,10.5,22,22.8v27.4c0,5.9-2.6,8.7-4.9,9.7l-13.3,6.1V41c0-5.4-4.4-9.7-10-9.7c-5.4,0-9.7,4.4-9.7,9.7v130.8
		c0,5.6,4.4,10,9.7,10c5.6,0,10-4.4,10-10v-24.1c0-5.9,2.6-8.7,4.9-10c1.5-0.8,8.7-3.8,13.3-5.9V175.1z"/>
	<path class="st0" d="M209,196.1v-65.5c0-8.7-4.6-11.5-9.5-11.5h-9.7v77.1h-18.4V16.9H205c12.3,0,22.5,10,22.5,22.5v55.3
		c0,0,0.8,14.1-6.7,15.9c7.2,3.6,6.7,16.9,6.7,16.9v68.6H209z M199.6,101.6c4.9,0,9.5-2,9.5-10.2V43.3c0-6.7-4.6-9.2-9.5-9.2h-9.7
		v67.6H199.6z"/>
	<path class="st0" d="M385.4,196.1h-20.2L349.1,72.7L333,196.1h-20.2l27.1-179.2h10c7.7,0,9,4.9,9.7,9.7L385.4,196.1z"/>
	<path class="st0" d="M533.9,16.9c-1.8,4.6-5.1,11.8-5.9,13.3c-1.3,2.3-3.8,5.1-9.7,5.1h-20.5c-2.3,0-4.4,2-4.4,4.4v55.8h32.8
		l-6.1,13.3c-1.3,2.3-3.8,5.1-9.7,5.1h-12.3c-2.6,0-4.6,1.8-4.6,4.4v72.4c0,3.1-2.6,5.4-5.4,5.4h-12.8V22.3c0-2.8,2.3-5.4,5.4-5.4
		H533.9z"/>
	<path class="st0" d="M680.3,30.2c-1,2.3-3.8,4.9-9.7,4.9h-14.3c-2.6,0-4.4,2-4.6,4.4v156.7h-13.1c-4.4,0-5.1-2.6-5.1-3.8V35.1
		h-25.9V22.5c0-3.1,2.6-5.6,5.6-5.6h73.2L680.3,30.2z"/>
</g>
</svg>
