<?xml version="1.0" encoding="utf-8"?>
<!-- Generator: Adobe Illustrator 21.0.0, SVG Export Plug-In . SVG Version: 6.00 Build 0)  -->
<svg version="1.1" id="Слой_2" xmlns="http://www.w3.org/2000/svg" xmlns:xlink="http://www.w3.org/1999/xlink" x="0px" y="0px"
	 viewBox="0 0 512 151" style="enable-background:new 0 0 512 151;" xml:space="preserve">
<style type="text/css">
	.st0{fill:none;stroke:#430098;stroke-width:10;stroke-miterlimit:10;}
	.st1{fill:#430098;}
	.st2{fill:#404040;}
	.st3{fill:#424242;}
	.st4{fill:#49089B;}
	.st5{fill:#450399;}
	.st6{fill:#4B0A9C;}
	.st7{fill:#3E3E3E;}
	.st8{fill:#47059A;}
	.st9{fill:#652EAB;}
	.st10{fill:#3C3C3C;}
	.st11{fill:#444444;}
</style>
<g>
	<path class="st0" d="M124,143.5H26.5c-6.6,0-12-5.4-12-12v-112c0-6.6,5.4-12,12-12H124c6.6,0,12,5.4,12,12v112
		C136,138.1,130.6,143.5,124,143.5z"/>
	<g>
		<path class="st1" d="M198.1,99.5c0,4.3-4.8,7.8-10.8,8h-5.5c-6.3,0-11.3-3.6-11.3-8v-48c0-4.4,5-8,11.3-8h5.5
			c6,0.1,10.8,3.7,10.8,8v9.6c0,2.1-1.3,3-2.4,3.4l-6.5,2.2V52.6c0-1.9-2.1-3.4-4.9-3.4c-2.6,0-4.8,1.5-4.8,3.4v45.8
			c0,2,2.1,3.5,4.8,3.5c2.8,0,4.9-1.5,4.9-3.5v-8.4c0-2.1,1.3-3,2.4-3.5c0.8-0.3,4.3-1.3,6.5-2.1V99.5z"/>
		<path class="st1" d="M263.8,106.9V83.9c0-3-2.3-4-4.6-4h-4.8v27h-9V44.1h16.4c6,0,11,3.5,11,7.9v19.4c0,0,0.4,4.9-3.3,5.6
			c3.5,1.3,3.3,5.9,3.3,5.9v24H263.8z M259.1,73.8c2.4,0,4.6-0.7,4.6-3.6V53.4c0-2.3-2.3-3.2-4.6-3.2h-4.8v23.7H259.1z"/>
		<path class="st1" d="M350.1,106.9h-9.9l-7.9-43.2l-7.9,43.2h-9.9l13.3-62.7h4.9c3.8,0,4.4,1.7,4.8,3.4L350.1,106.9z"/>
		<path class="st1" d="M422.8,44.1c-0.9,1.6-2.5,4.1-2.9,4.7c-0.6,0.8-1.9,1.8-4.8,1.8h-10c-1.1,0-2.1,0.7-2.1,1.5v19.5h16l-3,4.7
			c-0.6,0.8-1.9,1.8-4.8,1.8h-6c-1.3,0-2.3,0.6-2.3,1.5V105c0,1.1-1.3,1.9-2.6,1.9h-6.3V46c0-1,1.1-1.9,2.6-1.9H422.8z"/>
		<path class="st1" d="M494.5,48.8c-0.5,0.8-1.9,1.7-4.8,1.7h-7c-1.3,0-2.1,0.7-2.3,1.5v54.9H474c-2.1,0-2.5-0.9-2.5-1.3v-55h-12.7
			v-4.4c0-1.1,1.3-2,2.8-2h35.8L494.5,48.8z"/>
	</g>
	<g>
		<path class="st2" d="M77.2,78.3c6.8,4,13.1,7.6,20.1,11.7c-6.9,4.1-13.2,7.8-20.1,11.8C77.2,93.8,77.2,86.5,77.2,78.3z"/>
		<path class="st3" d="M73.1,78.1c0,8.3,0,15.6,0,23.8c-7-4-13.3-7.7-20.3-11.8C59.6,86,65.9,82.3,73.1,78.1z"/>
		<path class="st4" d="M102.6,87c0-8.1,0-15.3,0-23.3c6.7,3.9,12.8,7.5,19.8,11.7C115.5,79.4,109.3,83,102.6,87z"/>
		<path class="st4" d="M27.6,75.3c7-4.1,13-7.6,19.5-11.5c0,7.8,0,15,0,22.9C40.7,83,34.7,79.5,27.6,75.3z"/>
		<path class="st5" d="M53.8,60c6.5-3.8,12.6-7.4,19.3-11.3c0,7.8,0,14.7,0,22.4C66.3,67.9,60.4,63.9,53.8,60z"/>
		<path class="st1" d="M77.1,71.3c0-7.9,0-14.8,0-22.6c6.7,3.9,12.7,7.4,19.4,11.3C89.9,63.9,83.9,67.4,77.1,71.3z"/>
		<path class="st6" d="M51.8,86.1c0-7.8,0-14.8,0-22.7c6.5,3.8,12.7,7.4,19.5,11.4C64.5,78.7,58.4,82.3,51.8,86.1z"/>
		<path class="st7" d="M98.1,56.6c-6.4-3.8-12.5-7.3-19.3-11.3c6.7-3.9,12.6-7.4,19.3-11.3C98.1,41.8,98.1,48.7,98.1,56.6z"/>
		<path class="st8" d="M78.8,74.8c6.9-4,12.8-7.5,19.4-11.3c0,7.7,0,14.8,0,22.6C91.7,82.3,85.6,78.8,78.8,74.8z"/>
		<path class="st7" d="M98.2,94c0,7.9,0,14.7,0,22.6c-6.7-3.9-12.7-7.4-19.4-11.3C85.6,101.3,91.6,97.8,98.2,94z"/>
		<path class="st3" d="M52,94c6.4,3.7,12.5,7.3,19.2,11.2c-6.4,3.9-12.2,7.7-19.2,10.9C52,108.5,52,101.5,52,94z"/>
		<path class="st1" d="M121.3,70.2c-6-3.5-11.4-6.7-17.3-10.2c6-3.5,11.4-6.7,17.3-10.2C121.3,56.8,121.3,63,121.3,70.2z"/>
		<path class="st9" d="M29.1,50.1c5.8,3.4,11,6.4,17,9.9c-5.9,3.4-11.1,6.5-17,9.9C29.1,63.2,29.1,57.2,29.1,50.1z"/>
		<path class="st7" d="M102.6,113.1c0-6.9,0-13,0-19.9c5.7,3.3,11.1,6.4,17.3,9.9C114,106.5,108.6,109.6,102.6,113.1z"/>
		<path class="st10" d="M77.2,22.7c5.6,3.2,10.7,6.1,16.5,9.4c-5.6,3.3-10.8,6.3-16.5,9.7C77.2,35.4,77.2,29.5,77.2,22.7z"/>
		<path class="st2" d="M47.5,93.1c0,6.9,0,12.8,0,19.7c-5.8-3.3-11.1-6.3-17-9.7C36.3,99.6,41.5,96.6,47.5,93.1z"/>
		<path class="st11" d="M77,128c0-6.8,0-12.6,0-19.2c5.6,3.2,10.7,6.1,16.7,9.6C88,121.6,82.9,124.6,77,128z"/>
		<path class="st10" d="M73.1,42c-5.7-3.3-10.7-6.3-16.4-9.6c5.8-3.4,10.8-6.3,16.4-9.6C73.1,29.4,73.1,35.1,73.1,42z"/>
		<path class="st11" d="M73.2,108.5c0,6.9,0,12.5,0,19.2c-5.6-3.2-10.6-6.2-16.5-9.6C62.5,114.9,67.5,111.9,73.2,108.5z"/>
		<path class="st3" d="M29,80.6c5.5,3.2,10.4,6.1,16,9.3c-5.3,3.6-10.3,6.5-16,9.3C29,93,29,87.3,29,80.6z"/>
		<path class="st8" d="M121.3,99.7c-5.7-3.3-10.8-6.3-16.4-9.7c5.7-3.3,10.8-6.3,16.4-9.5C121.3,87,121.3,92.9,121.3,99.7z"/>
		<path class="st7" d="M102.5,56.5c0-6.8,0-12.6,0-19.1c5.6,3.2,10.7,6.1,16.5,9.5C113.3,50.1,108.3,53.1,102.5,56.5z"/>
		<polygon class="st2" points="51.5,56.5 71.5,45.5 51.5,33.5 		"/>
		<polygon class="st3" points="31.5,47.5 47.5,37.5 47.5,56.5 		"/>
	</g>
</g>
</svg>
